<?xml version="1.0" encoding="UTF-8"?>
<!DOCTYPE svg PUBLIC "-//W3C//DTD SVG 1.1//EN" "http://www.w3.org/Graphics/SVG/1.1/DTD/svg11.dtd">
<!-- Creator: CorelDRAW 2020 (64 Bit) -->
<svg xmlns="http://www.w3.org/2000/svg" xml:space="preserve" width="111.905mm" height="71.5587mm" version="1.1" shape-rendering="geometricPrecision" text-rendering="geometricPrecision" image-rendering="optimizeQuality" fill-rule="evenodd" clip-rule="evenodd"
viewBox="0 0 11470.83 7335.15"
 xmlns:xlink="http://www.w3.org/1999/xlink"
 xmlns:xodm="http://www.corel.com/coreldraw/odm/2003">
 <g id="Camada_x0020_1">
  <metadata id="CorelCorpID_0Corel-Layer"/>
  <g id="_2605772710000">
   <g>
   <defs>
    <linearGradient id="gradient" gradientTransform="rotate(130)">
      <stop offset="0%" stop-color="#5399DB" />
      <stop offset="30%" stop-color="#A6CCEE" />
    </linearGradient>
  </defs>
    <path fill="url(#gradient)" fill-rule="nonzero" d="M3796.6 88.76c998.27,-310.53 2154.98,222.13 2605.24,1156.47 32.09,119.24 171.31,123.49 253.22,194.29 258.47,181.55 370.34,535.53 266.45,833.07 -92.77,286.06 -375.46,501.32 -678,500.82 -318.65,17.98 -628.93,-201.02 -723.82,-504.56 -98.14,-282.31 3.13,-607.95 226.75,-800.99 -249.22,-442.26 -715.33,-767.03 -1227.27,-799.86 -450,-31.59 -905.37,162.82 -1206.66,496.07 -328.01,355.86 -453.62,877.9 -348.12,1347.88 82.4,399.56 330.89,762.28 678.25,978.04 307.03,-136.6 696.73,-39.45 893.75,235.24 238.86,306.53 174.18,793.49 -138.72,1024.99 -252.09,203.02 -639.04,204.65 -895.88,9.24 -219.26,-159.32 -330.39,-444.14 -288.68,-710.59 -468.23,-327.39 -1084.67,-517.81 -1639.31,-304.41 -643.78,229.12 -1026.11,975.67 -865.41,1634.56 177.18,826.71 1090.29,1342.64 1898.65,1211.65 595.97,-99.14 1095.03,-475.97 1535.67,-867.29 989.78,-889.02 1745.32,-2028.88 2853.08,-2787.41 615.06,-426.9 1372.6,-675 2124.77,-591.22 848.18,80.54 1660.78,577.48 2067.58,1333.89 553.02,1004.63 266.95,2369.25 -617.2,3090.44 -600.46,503.69 -1447.4,687.74 -2203.56,485.21 -515.67,-131.98 -979.16,-406.67 -1418.8,-698.6 -248.98,129.11 -569,111.87 -793.25,-60.93 -259.84,-187.42 -366.47,-552.76 -250.35,-851.06 119.24,-339.13 507.69,-548.76 856.68,-461.11 364.1,73.92 623.06,450.5 569.49,817.47 444.88,295.68 924.72,574.61 1462,650.9 508.81,75.79 1043.09,-103.39 1413.18,-458.12 563.87,-524.66 769.15,-1421.68 424.28,-2121.4 -312.65,-664.14 -1049.34,-1057.32 -1768.17,-1063.94 -488.96,-17.48 -961.44,166.19 -1369.73,422.4 -512.18,323.76 -949.2,749.29 -1368.86,1182.18 -673.38,708.97 -1274.46,1501.71 -2075.7,2076.19 -392.44,281.06 -840.7,497.45 -1321.66,568.49 -728.06,115.12 -1501.71,-124.86 -2042.11,-624.68 -582.73,-543.77 -825.33,-1420.8 -602.71,-2186.33 127.49,-453.87 422.66,-858.54 819.84,-1113.52 436.89,-282.94 974.67,-387.57 1489.22,-335.13 -155.95,-398.81 -200.15,-842.82 -108.76,-1262.35 162.22,-766.38 757.44,-1430.02 1514.6,-1646.03zm2335.41 1630.19c-236.74,55.69 -325.39,389.69 -142.84,552.51 169.44,183.79 510.06,83.53 555.14,-161.45 62.3,-231.99 -183.55,-468.48 -412.3,-391.07zm-2264.36 2126.15c-168.31,37.09 -289.56,221.63 -247.36,390.06 30.46,151.71 178.92,270.7 334.38,261.21 181.04,0 338.37,-174.18 318.15,-354.73 -8.73,-194.17 -216.88,-349.62 -405.17,-296.55zm2619.6 1745.44c-159.32,54.06 -258.71,240.23 -207.89,402.18 44.83,170.19 242.35,284.43 411.17,226.62 170.68,-46.08 281.06,-243.85 223.75,-412.79 -50.07,-173.93 -256.59,-282.81 -427.03,-216.01z"/>
   </g>
  </g>
 </g>
</svg>