<svg xmlns="http://www.w3.org/2000/svg" xmlns:xlink="http://www.w3.org/1999/xlink" data-name="1" preserveAspectRatio="xMidYMid meet" version="1.0" viewBox="-0.9 -0.3 57.8 54.2" zoomAndPan="magnify" style="fill: rgb(192, 255, 112);" original_string_length="618"><g id="__id305_sgdwvwtyb5"><path d="M52.89,28.039H50.6V51.521a2.434,2.434,0,0,1-2.552,2.28H34.52V37.79a1.673,1.673,0,0,0-1.672-1.673H23.033a1.672,1.672,0,0,0-1.672,1.673V53.8H7.832A2.418,2.418,0,0,1,5.29,51.529V28.039H2.99c-2.549,0-3.93-2.4-2.26-3.94L25.9.83a3.505,3.505,0,0,1,4.54.009Q42.8,12.473,55.171,24.107C56.81,25.662,55.43,28.039,52.89,28.039Z" style="fill: inherit;"/></g></svg>