<svg xmlns="http://www.w3.org/2000/svg" xmlns:xlink="http://www.w3.org/1999/xlink" preserveAspectRatio="xMidYMid meet" version="1.0" viewBox="4.6 1.7 82.4 87.8" zoomAndPan="magnify" style="fill: rgb(191, 255, 113);" original_string_length="2626" width="82px" height="88px"><g id="__id284_snefpycd"><path d="m39.33,89.51c-19.17,0-34.76-19.69-34.76-43.89S20.16,1.74,39.33,1.74s34.76,19.69,34.76,43.89-15.59,43.89-34.76,43.89Zm0-85.28C21.54,4.24,7.07,22.8,7.07,45.62s14.47,41.39,32.26,41.39,32.26-18.57,32.26-41.39S57.11,4.24,39.33,4.24Z" style="fill: inherit;"></path></g><g id="__id285_snefpycd"><path d="m52.18,89.51h-12.86c-.69,0-1.25-.56-1.25-1.25s.56-1.25,1.25-1.25h12.86c17.79,0,32.26-18.57,32.26-41.39S69.97,4.24,52.18,4.24h-12.86c-.69,0-1.25-.56-1.25-1.25s.56-1.25,1.25-1.25h12.86c19.17,0,34.76,19.69,34.76,43.89s-15.59,43.89-34.76,43.89Z" style="fill: inherit;"></path></g><g id="__id286_snefpycd"><path d="m77.9,20.32h-12.37c-.69,0-1.25-.56-1.25-1.25s.56-1.25,1.25-1.25h12.37c.69,0,1.25.56,1.25,1.25s-.56,1.25-1.25,1.25Z" style="fill: inherit;"></path></g><g id="__id287_snefpycd"><path d="m82.22,33.98h-10.95c-.69,0-1.25-.56-1.25-1.25s.56-1.25,1.25-1.25h10.95c.69,0,1.25.56,1.25,1.25s-.56,1.25-1.25,1.25Z" style="fill: inherit;"></path></g><g id="__id288_snefpycd"><path d="m83.91,41.8h-11.07c-.69,0-1.25-.56-1.25-1.25s.56-1.25,1.25-1.25h11.07c.69,0,1.25.56,1.25,1.25s-.56,1.25-1.25,1.25Z" style="fill: inherit;"></path></g><g id="__id289_snefpycd"><path d="m79.59,70.91h-12.59c-.69,0-1.25-.56-1.25-1.25s.56-1.25,1.25-1.25h12.59c.69,0,1.25.56,1.25,1.25s-.56,1.25-1.25,1.25Z" style="fill: inherit;"></path></g><g id="__id290_snefpycd"><path d="m73.52,78.73h-10.9c-.69,0-1.25-.56-1.25-1.25s.56-1.25,1.25-1.25h10.9c.69,0,1.25.56,1.25,1.25s-.56,1.25-1.25,1.25Z" style="fill: inherit;"></path></g><g id="__id291_snefpycd"><path d="m41.78,62.72h-4.9c-4.06,0-7.36-3.3-7.36-7.36v-1.94c0-.69.56-1.25,1.25-1.25s1.25.56,1.25,1.25v1.94c0,2.68,2.18,4.86,4.86,4.86h4.9c2.68,0,4.86-2.18,4.86-4.86v-3.16c0-1.61-1.76-3.01-2.88-3.74l-9.99-3.84c-.08-.03-.15-.07-.22-.11-2.68-1.71-4.04-3.66-4.04-5.82v-3.15c0-4.06,3.3-7.36,7.36-7.36h4.9c4.06,0,7.36,3.3,7.36,7.36v1.94c0,.69-.56,1.25-1.25,1.25s-1.25-.56-1.25-1.25v-1.94c0-2.68-2.18-4.86-4.86-4.86h-4.9c-2.68,0-4.86,2.18-4.86,4.86v3.15c0,1.23.93,2.45,2.78,3.65l9.99,3.84c.08.03.15.07.22.11,2.71,1.72,4.14,3.77,4.14,5.92v3.16c0,4.06-3.3,7.36-7.36,7.36Z" style="fill: inherit;"></path></g><g id="__id292_snefpycd"><path d="m39.7,67.65c-.69,0-1.25-.56-1.25-1.25v-4.38c0-.69.56-1.25,1.25-1.25s1.25.56,1.25,1.25v4.38c0,.69-.56,1.25-1.25,1.25Z" style="fill: inherit;"></path></g><g id="__id293_snefpycd"><path d="m39.7,30.31c-.69,0-1.25-.56-1.25-1.25v-4.21c0-.69.56-1.25,1.25-1.25s1.25.56,1.25,1.25v4.21c0,.69-.56,1.25-1.25,1.25Z" style="fill: inherit;"></path></g></svg>