<svg xmlns="http://www.w3.org/2000/svg" xmlns:xlink="http://www.w3.org/1999/xlink" preserveAspectRatio="xMidYMid meet" version="1.0" viewBox="0.0 0.0 16.0 17.0" zoomAndPan="magnify" style="fill: rgb(0, 0, 0);" original_string_length="975"><defs><linearGradient xmlns:xlink="http://www.w3.org/1999/xlink" gradientUnits="userSpaceOnUse" id="__id315_sgdwvwtyb5" x2="16" xlink:actuate="onLoad" xlink:show="other" xlink:type="simple" y1="8.5" y2="8.5"><stop offset="0" style="stop-color: rgb(191, 255, 113);"/><stop offset=".49" style="stop-color: rgb(192, 255, 112);"/><stop offset="1" style="stop-color: rgb(192, 255, 112);"/></linearGradient></defs><g><path d="M5,8.5V10H.5a.5.5,0,0,0-.5.5v6a.5.5,0,0,0,.5.5h15a.5.5,0,0,0,.5-.5V12a.5.5,0,0,0-.5-.5H11v-3a.5.5,0,0,0-.5-.5h-5A.5.5,0,0,0,5,8.5ZM1,11H5v5H1Zm14,1.5V16H11V12.5ZM6,9h4v7H6V9ZM9.5,1.5A1.5,1.5,0,1,0,8,3,1.5,1.5,0,0,0,9.5,1.5ZM8,2a.5.5,0,1,1,.5-.5A.5.5,0,0,1,8,2ZM5.5,5.5v1A.5.5,0,0,0,6,7h4a.5.5,0,0,0,.5-.5v-1a2.5,2.5,0,0,0-5,0Zm1,0a1.5,1.5,0,0,1,3,0V6h-3Z" style="fill: url(&quot;#__id315_sgdwvwtyb5&quot;);"/></g></svg>